<svg xmlns="http://www.w3.org/2000/svg" viewBox="0 0 96 83" enable-background="new 0 0 96 83"><style type="text/css">.st0{fill:#fff;}</style><path class="st0" d="M44.7 31.8c-.1-.3-.3-.5-.7-.4-.5.2-.6 1.4-.7 1.9-.2.8-.2 1.7-.4 2.5-.3 1.6-.5 3.2-.7 4.8-.2 2.2-.4 4.3-.6 6.5-.1 1.8-.3 3.5-.4 5.3-.2 2.5-.3 5.1-.5 7.6 0 .7-.1 1.4-.1 2.2-.1 1.7-.1 4 1.1 5.3.3.3.7.6 1.1.7 1.1.4 2.3.1 3.3-.5 3.4-2 5.8-5.4 8.2-8.4l3.9-4.8c.6-.7 1.7-1.3 2.5-.5 1.6 1.7 2.5 5.6 5.5 4.7.9-.3 1.7-1 2.2-1.8 2.8-3.9 5.1-8 7.4-12.2.6-1.2 1.3-2.4 1.9-3.6.5-.9.9-1.8 1.4-2.7.4-.7 1-1.6 1.1-2.5 0-.4-.2-.7-.6-.7-.5 0-.9.5-1.2.8-3 3.6-6 7.2-8.7 11.1-.7 1.1-1.4 2.2-2.2 3.2-.8 1.1-2.1 1.7-3.1.6-1.6-1.7-2.6-7.2-5.9-4.8-1.1.8-2 2-2.9 3.1-1.2 1.4-2.3 2.8-3.4 4.2-.6.8-1.3 1.6-1.9 2.4-.5.7-1.1 1.4-1.6 2.1-.4.5-.9 1.2-1.6 1.2-.4 0-.7-.4-.8-.8-.3-1.2-.2-2.5-.2-3.7v-4c0-2.7-.1-5.3-.2-8l-.3-4.5-.3-3.6c-.2-.7-.2-1.7-.6-2.7zM37.9 18.4c.2-.6.6-1.5.2-2-.5-.7-1.7.5-2.1.9-3.9 3.8-6.8 8.6-9.6 13.2-.8 1.4-1.7 2.7-2.4 4.1-1.6 2.9-3.4 5.9-4.4 9.2-.6 2-.9 4.6.7 6.2 2 1.9 5.2 1.6 7.7 1.5 2.9-.1 5.9-.3 8.8-.5 1.9-.1 3.8-.3 5.6-.4 2.4-.2 4.9-.3 7.3-.7.8-.1 1.9-.4 2.2-1.2.6-1.9-2.1-2-3.3-2.1-4.4-.2-8.8-.2-13.2-.3-2.2 0-4.5 0-6.7-.2-1.4-.1-3.3-.4-3.4-2.2-.1-1.4.6-2.8 1.2-3.9 1.5-2.8 3-5.5 4.5-8.2l3.3-6.3c.7-1.4 1.4-2.9 2.1-4.3.4-.8.8-1.7 1.1-2.5.3-.1.3-.2.4-.3zM87.2 1.2H8.4c-1 0-1.9.2-2.8.6-.9.3-1.7.9-2.4 1.5C2.5 4 2 4.8 1.6 5.7c-.4.9-.6 1.9-.6 2.9v66.1c0 1 .2 2 .6 2.9.4.9.9 1.7 1.6 2.3.7.7 1.5 1.2 2.4 1.5.9.4 1.8.6 2.8.6h78.8c1 0 1.9-.2 2.8-.6.9-.4 1.7-.9 2.4-1.5.7-.7 1.2-1.5 1.6-2.3.4-.9.6-1.9.6-2.9V8.6c0-1-.2-2-.6-2.9-.4-.9-.9-1.7-1.6-2.3-.7-.7-1.5-1.2-2.4-1.5-.9-.5-1.8-.7-2.8-.7zM5.5 8.6c0-1.6 1.3-2.9 2.9-2.9h78.8c1.6 0 2.9 1.3 2.9 2.9v66.1c0 1.6-1.3 2.9-2.9 2.9H8.4c-1.6 0-2.9-1.3-2.9-2.9V8.6z"/></svg>